<mxfile host="app.diagrams.net" agent="Mozilla/5.0 (X11; Linux x86_64; rv:138.0) Gecko/20100101 Firefox/138.0" version="26.2.14">
  <diagram name="Page-1" id="ElEJQn2bmnE-FZxb2ZQC">
    <mxGraphModel dx="1424" dy="927" grid="1" gridSize="10" guides="1" tooltips="1" connect="1" arrows="1" fold="1" page="1" pageScale="1" pageWidth="850" pageHeight="1100" math="0" shadow="0">
      <root>
        <mxCell id="0" />
        <mxCell id="1" parent="0" />
        <mxCell id="Kvmyp9nTmgMz7uB1PPaK-2" value="" style="rounded=0;whiteSpace=wrap;html=1;rotation=90;" vertex="1" parent="1">
          <mxGeometry x="90" y="118.75" width="230" height="182.5" as="geometry" />
        </mxCell>
        <mxCell id="Kvmyp9nTmgMz7uB1PPaK-3" value="&lt;div&gt;unsafe functions &lt;br&gt;&lt;/div&gt;" style="text;html=1;align=center;verticalAlign=middle;resizable=0;points=[];autosize=1;strokeColor=none;fillColor=none;" vertex="1" parent="1">
          <mxGeometry x="151.25" y="100" width="110" height="30" as="geometry" />
        </mxCell>
        <mxCell id="Kvmyp9nTmgMz7uB1PPaK-4" value="&lt;div&gt;integer overflow&lt;/div&gt;" style="text;html=1;align=center;verticalAlign=middle;resizable=0;points=[];autosize=1;strokeColor=none;fillColor=none;" vertex="1" parent="1">
          <mxGeometry x="151.25" y="130" width="110" height="30" as="geometry" />
        </mxCell>
        <mxCell id="Kvmyp9nTmgMz7uB1PPaK-5" value="incorrect format specifiers" style="text;html=1;align=center;verticalAlign=middle;resizable=0;points=[];autosize=1;strokeColor=none;fillColor=none;" vertex="1" parent="1">
          <mxGeometry x="126.25" y="160" width="160" height="30" as="geometry" />
        </mxCell>
        <mxCell id="Kvmyp9nTmgMz7uB1PPaK-6" value="&lt;div&gt;Stack based buffer overflow&lt;/div&gt;" style="text;html=1;align=center;verticalAlign=middle;resizable=0;points=[];autosize=1;strokeColor=none;fillColor=none;" vertex="1" parent="1">
          <mxGeometry x="121.25" y="190" width="170" height="30" as="geometry" />
        </mxCell>
        <mxCell id="Kvmyp9nTmgMz7uB1PPaK-7" value="&lt;div&gt;heap based buffer overflow&lt;/div&gt;" style="text;html=1;align=center;verticalAlign=middle;resizable=0;points=[];autosize=1;strokeColor=none;fillColor=none;" vertex="1" parent="1">
          <mxGeometry x="121.25" y="220" width="170" height="30" as="geometry" />
        </mxCell>
        <mxCell id="Kvmyp9nTmgMz7uB1PPaK-8" value="&lt;div&gt;use-after free&lt;/div&gt;" style="text;html=1;align=center;verticalAlign=middle;resizable=0;points=[];autosize=1;strokeColor=none;fillColor=none;" vertex="1" parent="1">
          <mxGeometry x="161.25" y="250" width="90" height="30" as="geometry" />
        </mxCell>
        <mxCell id="Kvmyp9nTmgMz7uB1PPaK-9" value="Improper array validation" style="text;html=1;align=center;verticalAlign=middle;resizable=0;points=[];autosize=1;strokeColor=none;fillColor=none;" vertex="1" parent="1">
          <mxGeometry x="126.25" y="280" width="160" height="30" as="geometry" />
        </mxCell>
      </root>
    </mxGraphModel>
  </diagram>
</mxfile>
